<?xml version="1.0" standalone="no"?>
<!DOCTYPE svg PUBLIC "-//W3C//DTD SVG 20010904//EN"
 "http://www.w3.org/TR/2001/REC-SVG-20010904/DTD/svg10.dtd">
<svg version="1.0" xmlns="http://www.w3.org/2000/svg"
 width="525.000000pt" height="525.000000pt" viewBox="0 0 525.000000 525.000000"
 preserveAspectRatio="xMidYMid meet">
<metadata>
Created by potrace 1.11, written by Peter Selinger 2001-2013
</metadata>
<g transform="translate(0.000000,525.000000) scale(0.100000,-0.100000)"
fill="#000000" stroke="none">
<path d="M521 4304 c-153 -32 -150 -70 23 -284 188 -233 286 -418 322 -610 28
-146 25 -274 -11 -455 -37 -187 -161 -538 -268 -752 -64 -129 -93 -175 -169
-269 -32 -39 -64 -89 -72 -111 -13 -37 -13 -43 4 -69 25 -40 68 -78 117 -104
35 -18 56 -21 125 -19 123 4 139 17 163 124 25 110 72 269 186 625 37 118 107
343 154 499 46 156 87 286 89 288 4 4 3 6 101 -99 39 -40 140 -148 225 -238
372 -394 542 -542 760 -658 287 -153 662 -143 1037 29 35 16 65 29 67 29 6 0
196 109 251 143 54 34 257 177 265 187 3 3 39 34 80 70 87 73 199 172 279 247
31 28 59 49 63 45 3 -4 9 -23 12 -42 2 -19 12 -84 21 -145 9 -60 18 -121 20
-135 3 -14 7 -45 11 -70 3 -25 9 -70 14 -100 5 -30 12 -75 15 -100 3 -25 8
-56 10 -70 3 -14 7 -43 10 -65 7 -59 34 -255 41 -295 3 -19 16 -58 29 -87 22
-50 40 -63 90 -68 40 -5 217 84 241 120 20 31 9 72 -57 213 -96 203 -143 341
-164 480 -18 117 -13 470 10 657 2 22 7 67 10 100 4 33 10 85 15 115 5 30 12
73 15 95 7 49 10 70 35 209 29 160 28 178 -16 214 -43 35 -116 57 -175 53 -25
-2 -55 -67 -99 -220 -49 -171 -86 -267 -146 -381 -217 -410 -628 -808 -1034
-1002 -81 -39 -146 -67 -170 -74 -124 -35 -179 -46 -255 -50 -80 -6 -98 -3
-165 20 -160 56 -371 206 -610 431 -199 189 -445 464 -616 691 -80 107 -63 82
-249 348 -165 234 -328 448 -379 493 -71 65 -120 74 -255 47z"/>
</g>
</svg>
